<svg width="200" height="200" viewBox="0 0 200 200" fill="none" xmlns="http://www.w3.org/2000/svg">
<path d="M89.0455 186V92.9091H111.545V130.273H148.227V92.9091H170.682V186H148.227V148.591H111.545V186H89.0455Z" fill="white"/>
<path d="M111.545 65.6364H88.8182C88.5152 63.303 87.8939 61.197 86.9545 59.3182C86.0152 57.4394 84.7727 55.8333 83.2273 54.5C81.6818 53.1667 79.8485 52.1515 77.7273 51.4545C75.6364 50.7273 73.3182 50.3636 70.7727 50.3636C66.2576 50.3636 62.3636 51.4697 59.0909 53.6818C55.8485 55.8939 53.3485 59.0909 51.5909 63.2727C49.8636 67.4545 49 72.5151 49 78.4545C49 84.6364 49.8788 89.8182 51.6364 94C53.4242 98.1515 55.9242 101.288 59.1364 103.409C62.3788 105.5 66.2121 106.545 70.6364 106.545C73.1212 106.545 75.3788 106.227 77.4091 105.591C79.4697 104.955 81.2727 104.03 82.8182 102.818C84.3939 101.576 85.6818 100.076 86.6818 98.3182C87.7121 96.5303 88.4242 94.5152 88.8182 92.2727L111.545 92.4091C111.152 96.5303 109.955 100.591 107.955 104.591C105.985 108.591 103.273 112.242 99.8182 115.545C96.3636 118.818 92.1515 121.424 87.1818 123.364C82.2424 125.303 76.5758 126.273 70.1818 126.273C61.7576 126.273 54.2121 124.424 47.5455 120.727C40.9091 117 35.6667 111.576 31.8182 104.455C27.9697 97.3333 26.0455 88.6667 26.0455 78.4545C26.0455 68.2121 28 59.5303 31.9091 52.4091C35.8182 45.2879 41.1061 39.8788 47.7727 36.1818C54.4394 32.4848 61.9091 30.6364 70.1818 30.6364C75.8182 30.6364 81.0303 31.4242 85.8182 33C90.6061 34.5455 94.8182 36.8182 98.4545 39.8182C102.091 42.7879 105.045 46.4394 107.318 50.7727C109.591 55.1061 111 60.0606 111.545 65.6364Z" fill="white"/>
</svg>
